<mxfile host="app.diagrams.net" modified="2024-04-15T09:10:10.174Z" agent="Mozilla/5.0 (Windows NT 10.0; Win64; x64) AppleWebKit/537.36 (KHTML, like Gecko) Chrome/123.0.0.0 Safari/537.36" version="24.2.5" etag="b7TFkc4008qF8cFV-ld6" type="github">
  <diagram name="Страница — 1" id="AeDL3vrudHblcF59rY4D">
    <mxGraphModel>
      <root>
        <mxCell id="0" />
        <mxCell id="1" parent="0" />
      </root>
    </mxGraphModel>
  </diagram>
</mxfile>
